<?xml version="1.0" encoding="utf-8"?>
<!-- Generator: Adobe Illustrator 25.0.1, SVG Export Plug-In . SVG Version: 6.00 Build 0)  -->
<svg version="1.0"
	 id="svg2" xmlns:cc="http://creativecommons.org/ns#" xmlns:dc="http://purl.org/dc/elements/1.1/" xmlns:inkscape="http://www.inkscape.org/namespaces/inkscape" xmlns:rdf="http://www.w3.org/1999/02/22-rdf-syntax-ns#" xmlns:sodipodi="http://sodipodi.sourceforge.net/DTD/sodipodi-0.dtd" xmlns:svg="http://www.w3.org/2000/svg"
	 xmlns="http://www.w3.org/2000/svg" xmlns:xlink="http://www.w3.org/1999/xlink" x="0px" y="0px" width="445px" height="445px"
	 viewBox="0 0 445 445" enable-background="new 0 0 445 445" xml:space="preserve">
<sodipodi:namedview  bordercolor="#666666" borderopacity="1" fit-margin-bottom="0" fit-margin-left="0" fit-margin-right="0" fit-margin-top="0" gridtolerance="10" guidetolerance="10" id="namedview3495" inkscape:current-layer="g12" inkscape:cx="523.17563" inkscape:cy="229.21677" inkscape:pageopacity="0" inkscape:pageshadow="2" inkscape:window-height="877" inkscape:window-maximized="1" inkscape:window-width="1600" inkscape:window-x="-8" inkscape:window-y="-8" inkscape:zoom="1.1852457" objecttolerance="10" pagecolor="#ffffff" showgrid="false">
	</sodipodi:namedview>
<g id="g10" transform="matrix(1.25,0,0,-1.25,0.10206869,221.89279)">
	<g id="g12" transform="scale(0.1)">
		<path id="path14" inkscape:connector-curvature="0" d="M2879.3-890.7L1779.2-464.3L679.1-890.6L1113.5-211L-0.8,205.2l1368.6-6.4
			l411.4,683.5l411.4-683.6l1368.6,6.3L2444.9-211L2879.3-890.7"/>
		<path id="path16" inkscape:connector-curvature="0" fill="#619CBC" d="M2730.5-769.2l-950.4,368.4L829.8-769.1L1205.1-182
			L242.5,177.5l1182.2-5.5l355.4,590.5L2135.5,172l1182.3,5.4L2355.2-182L2730.5-769.2"/>
		<path id="path18" inkscape:connector-curvature="0" d="M1050.6,533.1c94.9,0,39.6-237.2,5.8-308.7
			c-28.9-61.2-94-149.6-171.1-149.6c-92.5,0-89.8,103.6-53,181.7c19.9,42.2,50.6,89.6,92.8,124.4c-10.8-36.3,25.7-61.2,11-92.5
			c-10.1-21.4-31-44.7-41.8-67.7c-17.6-37.2-10.8-103.2,31.6-103.2c38,0,71.7,47,85.5,76.3c28.3,60,99.2,316.1,20,316.1
			c-91.2,0-248.3-222.2-281.3-291.9C691.4,93.6,734-59.7,867.8-59.7c90.4,0,164.8,86.9,200.7,163.1c21.4,45.3,33.1,90.4,37.6,133
			l17.6,3.2c3.9-117.1,127.7-310.9,75-422.6c-67.5-143-269.3-141.7-384.5-192.4c-24.2,56.6-57,109.3-103.2,149.5
			c102.8,34.6,355.3,92.6,410.2,208.9c23.1,48.9,7.4,129.9-19.3,157.4c-4.5-17.3-10.8-34.9-19.1-52.5C1035.9-11.8,935.2-89,831.4-89
			C686.9-89,625.7,14.8,693.7,158.9C734.5,245.3,942.9,533.1,1050.6,533.1"/>
		
			<path id="path20" inkscape:connector-curvature="0" fill="none" stroke="#000000" stroke-width="19.8761" stroke-linejoin="round" stroke-miterlimit="10" d="
			M1050.6,533.1c94.9,0,39.6-237.2,5.8-308.7c-28.9-61.2-94-149.6-171.1-149.6c-92.5,0-89.8,103.6-53,181.7
			c19.9,42.2,50.6,89.6,92.8,124.4c-10.8-36.3,25.7-61.2,11-92.5c-10.1-21.4-31-44.7-41.8-67.7c-17.6-37.2-10.8-103.2,31.6-103.2
			c38,0,71.7,47,85.5,76.3c28.3,60,99.2,316.1,20,316.1c-91.2,0-248.3-222.2-281.3-291.9C691.4,93.6,734-59.7,867.8-59.7
			c90.4,0,164.8,86.9,200.7,163.1c21.4,45.3,33.1,90.4,37.6,133l17.6,3.2c3.9-117.1,127.7-310.9,75-422.6
			c-67.5-143-269.3-141.7-384.5-192.4c-24.2,56.6-57,109.3-103.2,149.5c102.8,34.6,355.3,92.6,410.2,208.9
			c23.1,48.9,7.4,129.9-19.3,157.4c-4.5-17.3-10.8-34.9-19.1-52.5C1035.9-11.8,935.2-89,831.4-89C686.9-89,625.7,14.8,693.7,158.9
			C734.5,245.3,942.9,533.1,1050.6,533.1L1050.6,533.1z"/>
		<path id="path22" inkscape:connector-curvature="0" d="M1297.5,189.8c5.7-14.1,22.3-94,34.9-94c27.2,0,76.4,74.1,89.6,93.3
			c24.2-15.8,10.8-49.1,55.6-49.1c20.3,0,30.5,43.7,51.7,44.5c0.7-17.7,1.9-33.7-7.8-54.1c-14.9-31.5-52.5-74.2-89.4-74.2
			c-26.5,0-63.4,31.9-70.6,31.9c-7.9,0-22.3-3.7-26.9-13.4c-19.3-40.8,32.2-177,83.8-177c27.6,0,60.5,20.2,89.3,32.7
			c-7.5-49.1-8.6-90.4,1.4-132.7c-26.3-16.7-57.1-23.7-81.8-23.7c-126.8,0-56.9,295-173.8,357.8L1297.5,189.8"/>
		
			<path id="path24" inkscape:connector-curvature="0" fill="none" stroke="#000000" stroke-width="19.8761" stroke-linejoin="round" stroke-miterlimit="10" d="
			M1297.5,189.8c5.7-14.1,22.3-94,34.9-94c27.2,0,76.4,74.1,89.6,93.3c24.2-15.8,10.8-49.1,55.6-49.1c20.3,0,30.5,43.7,51.7,44.5
			c0.7-17.7,1.9-33.7-7.8-54.1c-14.9-31.5-52.5-74.2-89.4-74.2c-26.5,0-63.4,31.9-70.6,31.9c-7.9,0-22.3-3.7-26.9-13.4
			c-19.3-40.8,32.2-177,83.8-177c27.6,0,60.5,20.2,89.3,32.7c-7.5-49.1-8.6-90.4,1.4-132.7c-26.3-16.7-57.1-23.7-81.8-23.7
			c-126.8,0-56.9,295-173.8,357.8L1297.5,189.8z"/>
		<path id="path26" inkscape:connector-curvature="0" fill-rule="evenodd" clip-rule="evenodd" d="M1785,213.4
			c95.9,0,133.7-172.4,90.7-263.6c-33.4-70.7-92.5-121.9-168.3-121.9c-133.8,0-117.1,182.5-64.9,293.1
			c14.4,30.5,63.6,96.9,102.1,96.9C1758.7,217.9,1770.4,213.4,1785,213.4z M1782,197.3c-15.1,0-28.4-7.5-35.4-22.3
			c-14.7-31.1,58.6-62.6,48.1-84.9c-6.6-14-31.8-27.1-44.5-27.1c-63.5,0-63,82.6-25.1,136.5c-23.5-15-39-37.9-49-59.2
			c-37.2-78.8-7.7-187.3,77.3-187.3c46.9,0,101,42.2,122,86.7C1901.2,94.5,1835.1,197.3,1782,197.3"/>
		
			<path id="path28" inkscape:connector-curvature="0" fill="none" stroke="#000000" stroke-width="19.8761" stroke-linejoin="round" stroke-miterlimit="10" d="
			M1785,213.4c95.9,0,133.7-172.4,90.7-263.6c-33.4-70.7-92.5-121.9-168.3-121.9c-133.8,0-117.1,182.5-64.9,293.1
			c14.4,30.5,63.6,96.9,102.1,96.9C1758.7,217.9,1770.4,213.4,1785,213.4z"/>
		
			<path id="path30" inkscape:connector-curvature="0" fill="none" stroke="#000000" stroke-width="19.8761" stroke-linejoin="round" stroke-miterlimit="10" d="
			M1782,197.3c-15.1,0-28.4-7.5-35.4-22.3c-14.7-31.1,58.6-62.6,48.1-84.9c-6.6-14-31.8-27.1-44.5-27.1c-63.5,0-63,82.6-25.1,136.5
			c-23.5-15-39-37.9-49-59.2c-37.2-78.8-7.7-187.3,77.3-187.3c46.9,0,101,42.2,122,86.7C1901.2,94.5,1835.1,197.3,1782,197.3
			L1782,197.3z"/>
		<path id="path32" inkscape:connector-curvature="0" fill-rule="evenodd" clip-rule="evenodd" d="M2220.7-70.5
			c-25.1-53.1-71.7-82.2-124.3-82.2c-166.8,0-199.9,152.1-127.6,305.2c17.1,36.1,45.1,76.1,87.9,76.1
			C2190.6,228.7,2284,63.7,2220.7-70.5L2220.7-70.5z M2087.6,209.5c-12.3,0-23.1-4.4-29-17c-13-27.5,57.6-52,57.7-80.4
			c-7.4-8.7-28-18.5-37-18.5c-50.8,0-89.2,68.9-45.8,120.1c-17.6-11.2-28.1-27.9-35.5-43.7c-44-93.2,18.7-187.5,110.1-187.5
			c38,0,87.1,21.2,106.8,63C2242.9,104.9,2143.3,209.5,2087.6,209.5"/>
		
			<path id="path34" inkscape:connector-curvature="0" fill="none" stroke="#000000" stroke-width="19.8761" stroke-linejoin="round" stroke-miterlimit="10" d="
			M2220.7-70.5c-25.1-53.1-71.7-82.2-124.3-82.2c-166.8,0-199.9,152.1-127.6,305.2c17.1,36.1,45.1,76.1,87.9,76.1
			C2190.6,228.7,2284,63.7,2220.7-70.5L2220.7-70.5z"/>
		
			<path id="path36" inkscape:connector-curvature="0" fill="none" stroke="#000000" stroke-width="19.8761" stroke-linejoin="round" stroke-miterlimit="10" d="
			M2087.6,209.5c-12.3,0-23.1-4.4-29-17c-13-27.5,57.6-52,57.7-80.4c-7.4-8.7-28-18.5-37-18.5c-50.8,0-89.2,68.9-45.8,120.1
			c-17.6-11.2-28.1-27.9-35.5-43.7c-44-93.2,18.7-187.5,110.1-187.5c38,0,87.1,21.2,106.8,63
			C2242.9,104.9,2143.3,209.5,2087.6,209.5z"/>
		<path id="path38" inkscape:connector-curvature="0" d="M2393.2,210.4c143.7,0,216.8-263.8,152.5-399.8c-12.3-26-35.2-52-65.3-52
			c-164.2,0-122.3,326.4-214.8,419.2c8.5,9,16.5,18.4,24,27.8c62.5-73.3,31.4-266.3,164.9-266.3c30.7,0,54,26.9,66.4,53.2
			c33.1,70.2-28.2,192.1-95.3,192.1c-0.7,0-10.3-0.4-10.1-4.3c2.5-44.8,37.7-16.9,2.2-93.1c-36.3,7.2-74.7,65.4-54.8,107.4
			C2368.7,207,2383.3,210.4,2393.2,210.4"/>
		
			<path id="path40" inkscape:connector-curvature="0" fill="none" stroke="#000000" stroke-width="19.8761" stroke-linejoin="round" stroke-miterlimit="10" d="
			M2393.2,210.4c143.7,0,216.8-263.8,152.5-399.8c-12.3-26-35.2-52-65.3-52c-164.2,0-122.3,326.4-214.8,419.2
			c8.5,9,16.5,18.4,24,27.8c62.5-73.3,31.4-266.3,164.9-266.3c30.7,0,54,26.9,66.4,53.2c33.1,70.2-28.2,192.1-95.3,192.1
			c-0.7,0-10.3-0.4-10.1-4.3c2.5-44.8,37.7-16.9,2.2-93.1c-36.3,7.2-74.7,65.4-54.8,107.4C2368.7,207,2383.3,210.4,2393.2,210.4
			L2393.2,210.4z"/>
		<path id="path42" inkscape:connector-curvature="0" fill-rule="evenodd" clip-rule="evenodd" d="M2750.6,213.3
			c13.5-1.3,33.9-0.1,45.5-3.6c2.2-0.7,0.5-3.4,0.9-5.5c3.5-19.9,9.1-38.8,13.9-58.1c18.7-75,30-152.1,51.5-226.5
			c23.4-81,47.8-172.3,19.4-273.9c-2.8-9.9-6.5-20-11.3-30.2c-32.1-68-308.5-146.4-380.6-146.4c-8.8,0-18.2,2.5-22.4,8.2
			c30.4,19.4,49.5,39.2,63.1,68c16.3,34.5,16.1,66.9,13.9,96.7c5.8-3.4,218.1,1.9,225.8,1.9c31.2,0,58,30.2,70.5,56.7
			c23,48.7,19.1,98.5,15.1,139.9c-2,20.8-4.8,41.3-8.7,61.2l-5.9,28.8l-0.7,3.2L2840-63c3.5,0,0.4-6.1,0.5-9.2
			c2.1-50.2,1.2-120.4-25.7-177.5c-12.5-26.6-33.1-54-64.6-54c-138,0-68.6,391.4-179.2,484.5c6.1,10.1,11.6,20.5,16.2,30.7
			c65.5-79,68.9-297,165.2-297c23.4,0,47.5,21.9,57.5,43C2852.7,48.2,2781.6,153.8,2750.6,213.3"/>
		
			<path id="path44" inkscape:connector-curvature="0" fill="none" stroke="#000000" stroke-width="19.8761" stroke-linejoin="round" stroke-miterlimit="10" d="
			M2750.6,213.3c13.5-1.3,33.9-0.1,45.5-3.6c2.2-0.7,0.5-3.4,0.9-5.5c3.5-19.9,9.1-38.8,13.9-58.1c18.7-75,30-152.1,51.5-226.5
			c23.4-81,47.8-172.3,19.4-273.9c-2.8-9.9-6.5-20-11.3-30.2c-32.1-68-308.5-146.4-380.6-146.4c-8.8,0-18.2,2.5-22.4,8.2
			c30.4,19.4,49.5,39.2,63.1,68c16.3,34.5,16.1,66.9,13.9,96.7c5.8-3.4,218.1,1.9,225.8,1.9c31.2,0,58,30.2,70.5,56.7
			c23,48.7,19.1,98.5,15.1,139.9c-2,20.8-4.8,41.3-8.7,61.2l-5.9,28.8l-0.7,3.2L2840-63c3.5,0,0.4-6.1,0.5-9.2
			c2.1-50.2,1.2-120.4-25.7-177.5c-12.5-26.6-33.1-54-64.6-54c-138,0-68.6,391.4-179.2,484.5c6.1,10.1,11.6,20.5,16.2,30.7
			c65.5-79,68.9-297,165.2-297c23.4,0,47.5,21.9,57.5,43C2852.7,48.2,2781.6,153.8,2750.6,213.3L2750.6,213.3z"/>
		<path id="path46" inkscape:connector-curvature="0" d="M1050.6,533.1c94.9,0,39.6-237.2,5.8-308.7
			c-28.9-61.2-94-149.6-171.1-149.6c-92.5,0-89.8,103.6-53,181.7c19.9,42.2,50.6,89.6,92.8,124.4c-10.8-36.3,25.7-61.2,11-92.5
			c-10.1-21.4-31-44.7-41.8-67.7c-17.6-37.2-10.8-103.2,31.6-103.2c38,0,71.7,47,85.5,76.3c28.3,60,99.2,316.1,20,316.1
			c-91.2,0-248.3-222.2-281.3-291.9C691.4,93.6,734-59.7,867.8-59.7c90.4,0,164.8,86.9,200.7,163.1c21.4,45.3,33.1,90.4,37.6,133
			l17.6,3.2c3.9-117.1,127.7-310.9,75-422.6c-67.5-143-269.3-141.7-384.5-192.4c-24.2,56.6-57,109.3-103.2,149.5
			c102.8,34.6,355.3,92.6,410.2,208.9c23.1,48.9,7.4,129.9-19.3,157.4c-4.5-17.3-10.8-34.9-19.1-52.5C1035.9-11.8,935.2-89,831.4-89
			C686.9-89,625.7,14.8,693.7,158.9C734.5,245.3,942.9,533.1,1050.6,533.1"/>
		
			<path id="path48" inkscape:connector-curvature="0" fill="none" stroke="#000000" stroke-width="1.6564" stroke-miterlimit="10" d="
			M1050.6,533.1c94.9,0,39.6-237.2,5.8-308.7c-28.9-61.2-94-149.6-171.1-149.6c-92.5,0-89.8,103.6-53,181.7
			c19.9,42.2,50.6,89.6,92.8,124.4c-10.8-36.3,25.7-61.2,11-92.5c-10.1-21.4-31-44.7-41.8-67.7c-17.6-37.2-10.8-103.2,31.6-103.2
			c38,0,71.7,47,85.5,76.3c28.3,60,99.2,316.1,20,316.1c-91.2,0-248.3-222.2-281.3-291.9C691.4,93.6,734-59.7,867.8-59.7
			c90.4,0,164.8,86.9,200.7,163.1c21.4,45.3,33.1,90.4,37.6,133l17.6,3.2c3.9-117.1,127.7-310.9,75-422.6
			c-67.5-143-269.3-141.7-384.5-192.4c-24.2,56.6-57,109.3-103.2,149.5c102.8,34.6,355.3,92.6,410.2,208.9
			c23.1,48.9,7.4,129.9-19.3,157.4c-4.5-17.3-10.8-34.9-19.1-52.5C1035.9-11.8,935.2-89,831.4-89C686.9-89,625.7,14.8,693.7,158.9
			C734.5,245.3,942.9,533.1,1050.6,533.1L1050.6,533.1z"/>
		<path id="path50" inkscape:connector-curvature="0" d="M1297.5,189.8c5.7-14.1,22.3-94,34.9-94c27.2,0,76.4,74.1,89.6,93.3
			c24.2-15.8,10.8-49.1,55.6-49.1c20.3,0,30.5,43.7,51.7,44.5c0.7-17.7,1.9-33.7-7.8-54.1c-14.9-31.5-52.5-74.2-89.4-74.2
			c-26.5,0-63.4,31.9-70.6,31.9c-7.9,0-22.3-3.7-26.9-13.4c-19.3-40.8,32.2-177,83.8-177c27.6,0,60.5,20.2,89.3,32.7
			c-7.5-49.1-8.6-90.4,1.4-132.7c-26.3-16.7-57.1-23.7-81.8-23.7c-126.8,0-56.9,295-173.8,357.8L1297.5,189.8"/>
		
			<path id="path52" inkscape:connector-curvature="0" fill="none" stroke="#000000" stroke-width="1.6564" stroke-miterlimit="10" d="
			M1297.5,189.8c5.7-14.1,22.3-94,34.9-94c27.2,0,76.4,74.1,89.6,93.3c24.2-15.8,10.8-49.1,55.6-49.1c20.3,0,30.5,43.7,51.7,44.5
			c0.7-17.7,1.9-33.7-7.8-54.1c-14.9-31.5-52.5-74.2-89.4-74.2c-26.5,0-63.4,31.9-70.6,31.9c-7.9,0-22.3-3.7-26.9-13.4
			c-19.3-40.8,32.2-177,83.8-177c27.6,0,60.5,20.2,89.3,32.7c-7.5-49.1-8.6-90.4,1.4-132.7c-26.3-16.7-57.1-23.7-81.8-23.7
			c-126.8,0-56.9,295-173.8,357.8L1297.5,189.8z"/>
		<path id="path54" inkscape:connector-curvature="0" fill-rule="evenodd" clip-rule="evenodd" d="M1785,213.4
			c95.9,0,133.7-172.4,90.7-263.6c-33.4-70.7-92.5-121.9-168.3-121.9c-133.8,0-117.1,182.5-64.9,293.1
			c14.4,30.5,63.6,96.9,102.1,96.9C1758.7,217.9,1770.4,213.4,1785,213.4z M1782,197.3c-15.1,0-28.4-7.5-35.4-22.3
			c-14.7-31.1,58.6-62.6,48.1-84.9c-6.6-14-31.8-27.1-44.5-27.1c-63.5,0-63,82.6-25.1,136.5c-23.5-15-39-37.9-49-59.2
			c-37.2-78.8-7.7-187.3,77.3-187.3c46.9,0,101,42.2,122,86.7C1901.2,94.5,1835.1,197.3,1782,197.3"/>
		
			<path id="path56" inkscape:connector-curvature="0" fill="none" stroke="#000000" stroke-width="1.6564" stroke-miterlimit="10" d="
			M1785,213.4c95.9,0,133.7-172.4,90.7-263.6c-33.4-70.7-92.5-121.9-168.3-121.9c-133.8,0-117.1,182.5-64.9,293.1
			c14.4,30.5,63.6,96.9,102.1,96.9C1758.7,217.9,1770.4,213.4,1785,213.4z"/>
		
			<path id="path58" inkscape:connector-curvature="0" fill="none" stroke="#000000" stroke-width="1.6564" stroke-miterlimit="10" d="
			M1782,197.3c-15.1,0-28.4-7.5-35.4-22.3c-14.7-31.1,58.6-62.6,48.1-84.9c-6.6-14-31.8-27.1-44.5-27.1c-63.5,0-63,82.6-25.1,136.5
			c-23.5-15-39-37.9-49-59.2c-37.2-78.8-7.7-187.3,77.3-187.3c46.9,0,101,42.2,122,86.7C1901.2,94.5,1835.1,197.3,1782,197.3
			L1782,197.3z"/>
		<path id="path60" inkscape:connector-curvature="0" fill-rule="evenodd" clip-rule="evenodd" d="M2220.7-70.5
			c-25.1-53.1-71.7-82.2-124.3-82.2c-166.8,0-199.9,152.1-127.6,305.2c17.1,36.1,45.1,76.1,87.9,76.1
			C2190.6,228.7,2284,63.7,2220.7-70.5L2220.7-70.5z M2087.6,209.5c-12.3,0-23.1-4.4-29-17c-13-27.5,57.6-52,57.7-80.4
			c-7.4-8.7-28-18.5-37-18.5c-50.8,0-89.2,68.9-45.8,120.1c-17.6-11.2-28.1-27.9-35.5-43.7c-44-93.2,18.7-187.5,110.1-187.5
			c38,0,87.1,21.2,106.8,63C2242.9,104.9,2143.3,209.5,2087.6,209.5"/>
		
			<path id="path62" inkscape:connector-curvature="0" fill="none" stroke="#000000" stroke-width="1.6564" stroke-miterlimit="10" d="
			M2220.7-70.5c-25.1-53.1-71.7-82.2-124.3-82.2c-166.8,0-199.9,152.1-127.6,305.2c17.1,36.1,45.1,76.1,87.9,76.1
			C2190.6,228.7,2284,63.7,2220.7-70.5L2220.7-70.5z"/>
		
			<path id="path64" inkscape:connector-curvature="0" fill="none" stroke="#000000" stroke-width="1.6564" stroke-miterlimit="10" d="
			M2087.6,209.5c-12.3,0-23.1-4.4-29-17c-13-27.5,57.6-52,57.7-80.4c-7.4-8.7-28-18.5-37-18.5c-50.8,0-89.2,68.9-45.8,120.1
			c-17.6-11.2-28.1-27.9-35.5-43.7c-44-93.2,18.7-187.5,110.1-187.5c38,0,87.1,21.2,106.8,63
			C2242.9,104.9,2143.3,209.5,2087.6,209.5z"/>
		<path id="path66" inkscape:connector-curvature="0" d="M2393.2,210.4c143.7,0,216.8-263.8,152.5-399.8c-12.3-26-35.2-52-65.3-52
			c-164.2,0-122.3,326.4-214.8,419.2c8.5,9,16.5,18.4,24,27.8c62.5-73.3,31.4-266.3,164.9-266.3c30.7,0,54,26.9,66.4,53.2
			c33.1,70.2-28.2,192.1-95.3,192.1c-0.7,0-10.3-0.4-10.1-4.3c2.5-44.8,37.7-16.9,2.2-93.1c-36.3,7.2-74.7,65.4-54.8,107.4
			C2368.7,207,2383.3,210.4,2393.2,210.4"/>
		
			<path id="path68" inkscape:connector-curvature="0" fill="none" stroke="#000000" stroke-width="1.6564" stroke-miterlimit="10" d="
			M2393.2,210.4c143.7,0,216.8-263.8,152.5-399.8c-12.3-26-35.2-52-65.3-52c-164.2,0-122.3,326.4-214.8,419.2
			c8.5,9,16.5,18.4,24,27.8c62.5-73.3,31.4-266.3,164.9-266.3c30.7,0,54,26.9,66.4,53.2c33.1,70.2-28.2,192.1-95.3,192.1
			c-0.7,0-10.3-0.4-10.1-4.3c2.5-44.8,37.7-16.9,2.2-93.1c-36.3,7.2-74.7,65.4-54.8,107.4C2368.7,207,2383.3,210.4,2393.2,210.4
			L2393.2,210.4z"/>
		<path id="path70" inkscape:connector-curvature="0" fill-rule="evenodd" clip-rule="evenodd" d="M2750.6,213.3
			c13.5-1.3,33.9-0.1,45.5-3.6c2.2-0.7,0.5-3.4,0.9-5.5c3.5-19.9,9.1-38.8,13.9-58.1c18.7-75,30-152.1,51.5-226.5
			c23.4-81,47.8-172.3,19.4-273.9c-2.8-9.9-6.5-20-11.3-30.2c-32.1-68-114.6-132.7-186.8-132.7c-8.8,0-18.2,2.5-22.4,8.2
			c30.5,19.4,49.5,39.2,63.1,68c16.3,34.6,16.1,66.9,13.9,96.7c5.8-3.4,24.2-11.7,31.9-11.7c31.2,0,58,30.2,70.5,56.7
			c23,48.7,19.1,98.5,15.1,139.9c-2,20.8-4.8,41.3-8.7,61.2l-5.9,28.8l-0.7,3.2L2840-63c3.5,0,0.4-6.1,0.5-9.2
			c2.1-50.2,1.2-120.4-25.7-177.5c-12.5-26.6-33.1-54-64.6-54c-138,0-68.6,391.4-179.2,484.5c6.1,10.1,11.6,20.5,16.2,30.7
			c65.5-79,68.9-297,165.2-297c23.4,0,47.5,21.9,57.5,43C2852.7,48.2,2781.6,153.8,2750.6,213.3"/>
		
			<path id="path72" inkscape:connector-curvature="0" fill="none" stroke="#000000" stroke-width="1.6564" stroke-miterlimit="10" d="
			M2750.6,213.3c13.5-1.3,33.9-0.1,45.5-3.6c2.2-0.7,0.5-3.4,0.9-5.5c3.5-19.9,9.1-38.8,13.9-58.1c18.7-75,30-152.1,51.5-226.5
			c23.4-81,47.8-172.3,19.4-273.9c-2.8-9.9-6.5-20-11.3-30.2c-32.1-68-114.6-132.7-186.8-132.7c-8.8,0-18.2,2.5-22.4,8.2
			c30.5,19.4,49.5,39.2,63.1,68c16.3,34.6,16.1,66.9,13.9,96.7c5.8-3.4,24.2-11.7,31.9-11.7c31.2,0,58,30.2,70.5,56.7
			c23,48.7,19.1,98.5,15.1,139.9c-2,20.8-4.8,41.3-8.7,61.2l-5.9,28.8l-0.7,3.2L2840-63c3.5,0,0.4-6.1,0.5-9.2
			c2.1-50.2,1.2-120.4-25.7-177.5c-12.5-26.6-33.1-54-64.6-54c-138,0-68.6,391.4-179.2,484.5c6.1,10.1,11.6,20.5,16.2,30.7
			c65.5-79,68.9-297,165.2-297c23.4,0,47.5,21.9,57.5,43C2852.7,48.2,2781.6,153.8,2750.6,213.3L2750.6,213.3z"/>
		<path id="path74" inkscape:connector-curvature="0" d="M1050.6,533.1c94.9,0,39.6-237.2,5.8-308.7
			c-28.9-61.2-94-149.6-171.1-149.6c-92.5,0-89.8,103.6-53,181.7c19.9,42.2,50.6,89.6,92.8,124.4c-10.8-36.3,25.7-61.2,11-92.5
			c-10.1-21.4-31-44.7-41.8-67.7c-17.6-37.2-10.8-103.2,31.6-103.2c38,0,71.7,47,85.5,76.3c28.3,60,99.2,316.1,20,316.1
			c-91.2,0-248.3-222.2-281.3-291.9C691.4,93.6,734-59.7,867.8-59.7c90.4,0,164.8,86.9,200.7,163.1c21.4,45.3,33.1,90.4,37.6,133
			l17.6,3.2c3.9-117.1,127.7-310.9,75-422.6c-67.5-143-269.3-141.7-384.5-192.4c-24.2,56.6-57,109.3-103.2,149.5
			c102.8,34.6,355.3,92.6,410.2,208.9c23.1,48.9,7.4,129.9-19.3,157.4c-4.5-17.3-10.8-34.9-19.1-52.5C1035.9-11.8,935.2-89,831.4-89
			C686.9-89,625.7,14.8,693.7,158.9C734.5,245.3,942.9,533.1,1050.6,533.1"/>
		
			<path id="path76" inkscape:connector-curvature="0" fill="none" stroke="#000000" stroke-width="19.8761" stroke-linejoin="round" stroke-miterlimit="10" d="
			M1050.6,533.1c94.9,0,39.6-237.2,5.8-308.7c-28.9-61.2-94-149.6-171.1-149.6c-92.5,0-89.8,103.6-53,181.7
			c19.9,42.2,50.6,89.6,92.8,124.4c-10.8-36.3,25.7-61.2,11-92.5c-10.1-21.4-31-44.7-41.8-67.7c-17.6-37.2-10.8-103.2,31.6-103.2
			c38,0,71.7,47,85.5,76.3c28.3,60,99.2,316.1,20,316.1c-91.2,0-248.3-222.2-281.3-291.9C691.4,93.6,734-59.7,867.8-59.7
			c90.4,0,164.8,86.9,200.7,163.1c21.4,45.3,33.1,90.4,37.6,133l17.6,3.2c3.9-117.1,127.7-310.9,75-422.6
			c-67.5-143-269.3-141.7-384.5-192.4c-24.2,56.6-57,109.3-103.2,149.5c102.8,34.6,355.3,92.6,410.2,208.9
			c23.1,48.9,7.4,129.9-19.3,157.4c-4.5-17.3-10.8-34.9-19.1-52.5C1035.9-11.8,935.2-89,831.4-89C686.9-89,625.7,14.8,693.7,158.9
			C734.5,245.3,942.9,533.1,1050.6,533.1L1050.6,533.1z"/>
		<path id="path78" inkscape:connector-curvature="0" d="M1297.5,189.8c5.7-14.1,22.3-94,34.9-94c27.2,0,76.4,74.1,89.6,93.3
			c24.2-15.8,10.8-49.1,55.6-49.1c20.3,0,30.5,43.7,51.7,44.5c0.7-17.7,1.9-33.7-7.8-54.1c-14.9-31.5-52.5-74.2-89.4-74.2
			c-26.5,0-63.4,31.9-70.6,31.9c-7.9,0-22.3-3.7-26.9-13.4c-19.3-40.8,32.2-177,83.8-177c27.6,0,60.5,20.2,89.3,32.7
			c-7.5-49.1-8.6-90.4,1.4-132.7c-26.3-16.7-57.1-23.7-81.8-23.7c-126.8,0-56.9,295-173.8,357.8L1297.5,189.8"/>
		
			<path id="path80" inkscape:connector-curvature="0" fill="none" stroke="#000000" stroke-width="19.8761" stroke-linejoin="round" stroke-miterlimit="10" d="
			M1297.5,189.8c5.7-14.1,22.3-94,34.9-94c27.2,0,76.4,74.1,89.6,93.3c24.2-15.8,10.8-49.1,55.6-49.1c20.3,0,30.5,43.7,51.7,44.5
			c0.7-17.7,1.9-33.7-7.8-54.1c-14.9-31.5-52.5-74.2-89.4-74.2c-26.5,0-63.4,31.9-70.6,31.9c-7.9,0-22.3-3.7-26.9-13.4
			c-19.3-40.8,32.2-177,83.8-177c27.6,0,60.5,20.2,89.3,32.7c-7.5-49.1-8.6-90.4,1.4-132.7c-26.3-16.7-57.1-23.7-81.8-23.7
			c-126.8,0-56.9,295-173.8,357.8L1297.5,189.8z"/>
		<path id="path82" inkscape:connector-curvature="0" fill-rule="evenodd" clip-rule="evenodd" d="M1785,213.4
			c95.9,0,133.7-172.4,90.7-263.6c-33.4-70.7-92.5-121.9-168.3-121.9c-133.8,0-117.1,182.5-64.9,293.1
			c14.4,30.5,63.6,96.9,102.1,96.9C1758.7,217.9,1770.4,213.4,1785,213.4z M1782,197.3c-15.1,0-28.4-7.5-35.4-22.3
			c-14.7-31.1,58.6-62.6,48.1-84.9c-6.6-14-31.8-27.1-44.5-27.1c-63.5,0-63,82.6-25.1,136.5c-23.5-15-39-37.9-49-59.2
			c-37.2-78.8-7.7-187.3,77.3-187.3c46.9,0,101,42.2,122,86.7C1901.2,94.5,1835.1,197.3,1782,197.3"/>
		
			<path id="path84" inkscape:connector-curvature="0" fill="none" stroke="#000000" stroke-width="19.8761" stroke-linejoin="round" stroke-miterlimit="10" d="
			M1785,213.4c95.9,0,133.7-172.4,90.7-263.6c-33.4-70.7-92.5-121.9-168.3-121.9c-133.8,0-117.1,182.5-64.9,293.1
			c14.4,30.5,63.6,96.9,102.1,96.9C1758.7,217.9,1770.4,213.4,1785,213.4z"/>
		
			<path id="path86" inkscape:connector-curvature="0" fill="none" stroke="#000000" stroke-width="19.8761" stroke-linejoin="round" stroke-miterlimit="10" d="
			M1782,197.3c-15.1,0-28.4-7.5-35.4-22.3c-14.7-31.1,58.6-62.6,48.1-84.9c-6.6-14-31.8-27.1-44.5-27.1c-63.5,0-63,82.6-25.1,136.5
			c-23.5-15-39-37.9-49-59.2c-37.2-78.8-7.7-187.3,77.3-187.3c46.9,0,101,42.2,122,86.7C1901.2,94.5,1835.1,197.3,1782,197.3
			L1782,197.3z"/>
		<path id="path88" inkscape:connector-curvature="0" fill-rule="evenodd" clip-rule="evenodd" d="M2220.7-70.5
			c-25.1-53.1-71.7-82.2-124.3-82.2c-166.8,0-199.9,152.1-127.6,305.2c17.1,36.1,45.1,76.1,87.9,76.1
			C2190.6,228.7,2284,63.7,2220.7-70.5L2220.7-70.5z M2087.6,209.5c-12.3,0-23.1-4.4-29-17c-13-27.5,57.6-52,57.7-80.4
			c-7.4-8.7-28-18.5-37-18.5c-50.8,0-89.2,68.9-45.8,120.1c-17.6-11.2-28.1-27.9-35.5-43.7c-44-93.2,18.7-187.5,110.1-187.5
			c38,0,87.1,21.2,106.8,63C2242.9,104.9,2143.3,209.5,2087.6,209.5"/>
		
			<path id="path90" inkscape:connector-curvature="0" fill="none" stroke="#000000" stroke-width="19.8761" stroke-linejoin="round" stroke-miterlimit="10" d="
			M2220.7-70.5c-25.1-53.1-71.7-82.2-124.3-82.2c-166.8,0-199.9,152.1-127.6,305.2c17.1,36.1,45.1,76.1,87.9,76.1
			C2190.6,228.7,2284,63.7,2220.7-70.5L2220.7-70.5z"/>
		
			<path id="path92" inkscape:connector-curvature="0" fill="none" stroke="#000000" stroke-width="19.8761" stroke-linejoin="round" stroke-miterlimit="10" d="
			M2087.6,209.5c-12.3,0-23.1-4.4-29-17c-13-27.5,57.6-52,57.7-80.4c-7.4-8.7-28-18.5-37-18.5c-50.8,0-89.2,68.9-45.8,120.1
			c-17.6-11.2-28.1-27.9-35.5-43.7c-44-93.2,18.7-187.5,110.1-187.5c38,0,87.1,21.2,106.8,63
			C2242.9,104.9,2143.3,209.5,2087.6,209.5z"/>
		<path id="path94" inkscape:connector-curvature="0" d="M2393.2,210.4c143.7,0,216.8-263.8,152.5-399.8c-12.3-26-35.2-52-65.3-52
			c-164.2,0-122.3,326.4-214.8,419.2c8.5,9,16.5,18.4,24,27.8c62.5-73.3,31.4-266.3,164.9-266.3c30.7,0,54,26.9,66.4,53.2
			c33.1,70.2-28.2,192.1-95.3,192.1c-0.7,0-10.3-0.4-10.1-4.3c2.5-44.8,37.7-16.9,2.2-93.1c-36.3,7.2-74.7,65.4-54.8,107.4
			C2368.7,207,2383.3,210.4,2393.2,210.4"/>
		
			<path id="path96" inkscape:connector-curvature="0" fill="none" stroke="#000000" stroke-width="19.8761" stroke-linejoin="round" stroke-miterlimit="10" d="
			M2393.2,210.4c143.7,0,216.8-263.8,152.5-399.8c-12.3-26-35.2-52-65.3-52c-164.2,0-122.3,326.4-214.8,419.2
			c8.5,9,16.5,18.4,24,27.8c62.5-73.3,31.4-266.3,164.9-266.3c30.7,0,54,26.9,66.4,53.2c33.1,70.2-28.2,192.1-95.3,192.1
			c-0.7,0-10.3-0.4-10.1-4.3c2.5-44.8,37.7-16.9,2.2-93.1c-36.3,7.2-74.7,65.4-54.8,107.4C2368.7,207,2383.3,210.4,2393.2,210.4
			L2393.2,210.4z"/>
		<path id="path98" inkscape:connector-curvature="0" fill-rule="evenodd" clip-rule="evenodd" d="M2750.6,213.3
			c13.5-1.3,33.9-0.1,45.5-3.6c2.2-0.7,0.5-3.4,0.9-5.5c3.5-19.9,9.1-38.8,13.9-58.1c18.7-75,30-152.1,51.5-226.5
			c23.4-81,47.8-172.3,19.4-273.9c-2.8-9.9-6.5-20-11.3-30.2c-32.1-68-114.6-132.7-186.8-132.7c-8.8,0-18.2,2.5-22.4,8.2
			c30.5,19.4,49.5,39.2,63.1,68c16.3,34.6,16.1,66.9,13.9,96.7c5.8-3.4,24.2-11.7,31.9-11.7c31.2,0,58,30.2,70.5,56.7
			c23,48.7,19.1,98.5,15.1,139.9c-2,20.8-4.8,41.3-8.7,61.2l-5.9,28.8l-0.7,3.2L2840-63c3.5,0,0.4-6.1,0.5-9.2
			c2.1-50.2,1.2-120.4-25.7-177.5c-12.5-26.6-33.1-54-64.6-54c-138,0-68.6,391.4-179.2,484.5c6.1,10.1,11.6,20.5,16.2,30.7
			c65.5-79,68.9-297,165.2-297c23.4,0,47.5,21.9,57.5,43C2852.7,48.2,2781.6,153.8,2750.6,213.3"/>
		
			<path id="path100" inkscape:connector-curvature="0" fill="none" stroke="#000000" stroke-width="19.8761" stroke-linejoin="round" stroke-miterlimit="10" d="
			M2750.6,213.3c13.5-1.3,33.9-0.1,45.5-3.6c2.2-0.7,0.5-3.4,0.9-5.5c3.5-19.9,9.1-38.8,13.9-58.1c18.7-75,30-152.1,51.5-226.5
			c23.4-81,47.8-172.3,19.4-273.9c-2.8-9.9-6.5-20-11.3-30.2c-32.1-68-114.6-132.7-186.8-132.7c-8.8,0-18.2,2.5-22.4,8.2
			c30.5,19.4,49.5,39.2,63.1,68c16.3,34.6,16.1,66.9,13.9,96.7c5.8-3.4,24.2-11.7,31.9-11.7c31.2,0,58,30.2,70.5,56.7
			c23,48.7,19.1,98.5,15.1,139.9c-2,20.8-4.8,41.3-8.7,61.2l-5.9,28.8l-0.7,3.2L2840-63c3.5,0,0.4-6.1,0.5-9.2
			c2.1-50.2,1.2-120.4-25.7-177.5c-12.5-26.6-33.1-54-64.6-54c-138,0-68.6,391.4-179.2,484.5c6.1,10.1,11.6,20.5,16.2,30.7
			c65.5-79,68.9-297,165.2-297c23.4,0,47.5,21.9,57.5,43C2852.7,48.2,2781.6,153.8,2750.6,213.3L2750.6,213.3z"/>
		<path id="path102" inkscape:connector-curvature="0" fill="#FFFFFF" d="M1050.6,533.1c94.9,0,39.6-237.2,5.8-308.7
			c-28.9-61.2-94-149.6-171.1-149.6c-92.5,0-89.8,103.6-53,181.7c19.9,42.2,50.6,89.6,92.8,124.4c-10.8-36.3,25.7-61.2,11-92.5
			c-10.1-21.4-31-44.7-41.8-67.7c-17.6-37.2-10.8-103.2,31.6-103.2c38,0,71.7,47,85.5,76.3c28.3,60,99.2,316.1,20,316.1
			c-91.2,0-248.3-222.2-281.3-291.9C691.4,93.6,734-59.7,867.8-59.7c90.4,0,164.8,86.9,200.7,163.1c21.4,45.3,33.1,90.4,37.6,133
			l17.6,3.2c3.9-117.1,127.7-310.9,75-422.6c-67.5-143-269.3-141.7-384.5-192.4c-24.2,56.6-57,109.3-103.2,149.5
			c102.8,34.6,355.3,92.6,410.2,208.9c23.1,48.9,7.4,129.9-19.3,157.4c-4.5-17.3-10.8-34.9-19.1-52.5C1035.9-11.8,935.2-89,831.4-89
			C686.9-89,625.7,14.8,693.7,158.9C734.5,245.3,942.9,533.1,1050.6,533.1"/>
		<path id="path104" inkscape:connector-curvature="0" fill="#FFFFFF" d="M1297.5,189.8c5.7-14.1,22.3-94,34.9-94
			c27.2,0,76.4,74.1,89.6,93.3c24.2-15.8,10.8-49.1,55.6-49.1c20.3,0,30.5,43.7,51.7,44.5c0.7-17.7,1.9-33.7-7.8-54.1
			c-14.9-31.5-52.5-74.2-89.4-74.2c-26.5,0-63.4,31.9-70.6,31.9c-7.9,0-22.3-3.7-26.9-13.4c-19.3-40.8,32.2-177,83.8-177
			c27.6,0,60.5,20.2,89.3,32.7c-7.5-49.1-8.6-90.4,1.4-132.7c-26.3-16.7-57.1-23.7-81.8-23.7c-126.8,0-56.9,295-173.8,357.8
			L1297.5,189.8"/>
		<path id="path106" inkscape:connector-curvature="0" fill-rule="evenodd" clip-rule="evenodd" fill="#FFFFFF" d="M1785,213.4
			c95.9,0,133.7-172.4,90.7-263.6c-33.4-70.7-92.5-121.9-168.3-121.9c-133.8,0-117.1,182.5-64.9,293.1
			c14.4,30.5,63.6,96.9,102.1,96.9C1758.7,217.9,1770.4,213.4,1785,213.4z M1782,197.3c-15.1,0-28.4-7.5-35.4-22.3
			c-14.7-31.1,58.6-62.6,48.1-84.9c-6.6-14-31.8-27.1-44.5-27.1c-63.5,0-63,82.6-25.1,136.5c-23.5-15-39-37.9-49-59.2
			c-37.2-78.8-7.7-187.3,77.3-187.3c46.9,0,101,42.2,122,86.7C1901.2,94.5,1835.1,197.3,1782,197.3"/>
		<path id="path108" inkscape:connector-curvature="0" fill-rule="evenodd" clip-rule="evenodd" fill="#FFFFFF" d="M2220.7-70.5
			c-25.1-53.1-71.7-82.2-124.3-82.2c-166.8,0-199.9,152.1-127.6,305.2c17.1,36.1,45.1,76.1,87.9,76.1
			C2190.6,228.7,2284,63.7,2220.7-70.5L2220.7-70.5z M2087.6,209.5c-12.3,0-23.1-4.4-29-17c-13-27.5,57.6-52,57.7-80.4
			c-7.4-8.7-28-18.5-37-18.5c-50.8,0-89.2,68.9-45.8,120.1c-17.6-11.2-28.1-27.9-35.5-43.7c-44-93.2,18.7-187.5,110.1-187.5
			c38,0,87.1,21.2,106.8,63C2242.9,104.9,2143.3,209.5,2087.6,209.5"/>
		<path id="path110" inkscape:connector-curvature="0" fill="#FFFFFF" d="M2393.2,210.4c143.7,0,216.8-263.8,152.5-399.8
			c-12.3-26-35.2-52-65.3-52c-164.2,0-122.3,326.4-214.8,419.2c8.5,9,16.5,18.4,24,27.8c62.5-73.3,31.4-266.3,164.9-266.3
			c30.7,0,54,26.9,66.4,53.2c33.1,70.2-28.2,192.1-95.3,192.1c-0.7,0-10.3-0.4-10.1-4.3c2.5-44.8,37.7-16.9,2.2-93.1
			c-36.3,7.2-74.7,65.4-54.8,107.4C2368.7,207,2383.3,210.4,2393.2,210.4"/>
		<path id="path112" inkscape:connector-curvature="0" fill-rule="evenodd" clip-rule="evenodd" fill="#FFFFFF" d="M2750.6,213.3
			c13.5-1.3,33.9-0.1,45.5-3.6c2.2-0.7,0.5-3.4,0.9-5.5c3.5-19.9,9.1-38.8,13.9-58.1c18.7-75,30-152.1,51.5-226.5
			c23.4-81,47.8-172.3,19.4-273.9c-2.8-9.9-6.5-20-11.3-30.2c-107.6-206.7-338-151-410.1-151c-8.8,0-18.2,2.5-22.4,8.2
			c30.4,19.4,49.5,39.2,63.1,68c16.3,34.6,16.1,66.9,13.9,96.7c5.8-3.4,24.3-11.7,31.9-11.7c31.2,0,205.2-89.4,293.9,75
			c23,48.7,19.1,98.5,15.1,139.9c-2,20.8-4.8,41.3-8.7,61.2l-5.9,28.8l-0.7,3.2L2840-63c3.5,0,0.4-6.1,0.5-9.2
			c2.1-50.2,1.2-120.4-25.7-177.5c-12.5-26.6-33.1-54-64.6-54c-138,0-68.6,391.4-179.2,484.5c6.1,10.1,11.6,20.5,16.2,30.7
			c65.5-79,68.9-297,165.2-297c23.4,0,47.5,21.9,57.5,43C2852.7,48.2,2781.6,153.8,2750.6,213.3"/>
		<path id="path212" inkscape:connector-curvature="0" d="M2877.6-892.4L1778.3-465.5L679-892.3l434,680.4L-0.5,204.8l1367.6-6.4
			l411.1,684.3l411.1-684.4l1367.6,6.3L2443.5-212L2877.6-892.4"/>
		<path id="path214" inkscape:connector-curvature="0" fill="#619CBC" d="M2730.5-769.2l-950.4,368.4L829.8-769.1L1205.1-182
			L242.5,177.5l1182.2-5.5l355.4,590.5L2135.5,172l1182.3,5.4L2355.2-182L2730.5-769.2"/>
		<path id="path216" inkscape:connector-curvature="0" d="M1050.6,533.1c94.9,0,39.6-237.2,5.8-308.7
			c-28.9-61.2-94-149.6-171.1-149.6c-92.5,0-89.8,103.6-53,181.7c19.9,42.2,50.6,89.6,92.8,124.4c-10.8-36.3,25.7-61.2,11-92.5
			c-10.1-21.4-31-44.7-41.8-67.7c-17.6-37.2-10.8-103.2,31.6-103.2c38,0,71.7,47,85.5,76.3c28.3,60,99.2,316.1,20,316.1
			c-91.2,0-248.3-222.2-281.3-291.9C691.4,93.6,734-59.7,867.8-59.7c90.4,0,164.8,86.9,200.7,163.1c21.4,45.3,33.1,90.4,37.6,133
			l17.6,3.2c3.9-117.1,127.7-310.9,75-422.6c-67.5-143-269.3-141.7-384.5-192.4c-24.2,56.6-57,109.3-103.2,149.5
			c102.8,34.6,355.3,92.6,410.2,208.9c23.1,48.9,7.4,129.9-19.3,157.4c-4.5-17.3-10.8-34.9-19.1-52.5C1035.9-11.8,935.2-89,831.4-89
			C686.9-89,625.7,14.8,693.7,158.9C734.5,245.3,942.9,533.1,1050.6,533.1"/>
		
			<path id="path218" inkscape:connector-curvature="0" fill="none" stroke="#000000" stroke-width="19.8761" stroke-linejoin="round" stroke-miterlimit="10" d="
			M1050.6,533.1c94.9,0,39.6-237.2,5.8-308.7c-28.9-61.2-94-149.6-171.1-149.6c-92.5,0-89.8,103.6-53,181.7
			c19.9,42.2,50.6,89.6,92.8,124.4c-10.8-36.3,25.7-61.2,11-92.5c-10.1-21.4-31-44.7-41.8-67.7c-17.6-37.2-10.8-103.2,31.6-103.2
			c38,0,71.7,47,85.5,76.3c28.3,60,99.2,316.1,20,316.1c-91.2,0-248.3-222.2-281.3-291.9C691.4,93.6,734-59.7,867.8-59.7
			c90.4,0,164.8,86.9,200.7,163.1c21.4,45.3,33.1,90.4,37.6,133l17.6,3.2c3.9-117.1,127.7-310.9,75-422.6
			c-67.5-143-269.3-141.7-384.5-192.4c-24.2,56.6-57,109.3-103.2,149.5c102.8,34.6,355.3,92.6,410.2,208.9
			c23.1,48.9,7.4,129.9-19.3,157.4c-4.5-17.3-10.8-34.9-19.1-52.5C1035.9-11.8,935.2-89,831.4-89C686.9-89,625.7,14.8,693.7,158.9
			C734.5,245.3,942.9,533.1,1050.6,533.1L1050.6,533.1z"/>
		<path id="path220" inkscape:connector-curvature="0" d="M1297.5,189.8c5.7-14.1,22.3-94,34.9-94c27.2,0,76.4,74.1,89.6,93.3
			c24.2-15.8,10.8-49.1,55.6-49.1c20.3,0,30.5,43.7,51.7,44.5c0.7-17.7,1.9-33.7-7.8-54.1c-14.9-31.5-52.5-74.2-89.4-74.2
			c-26.5,0-63.4,31.9-70.6,31.9c-7.9,0-22.3-3.7-26.9-13.4c-19.3-40.8,32.2-177,83.8-177c27.6,0,60.5,20.2,89.3,32.7
			c-7.5-49.1-8.6-90.4,1.4-132.7c-26.3-16.7-57.1-23.7-81.8-23.7c-126.8,0-56.9,295-173.8,357.8L1297.5,189.8"/>
		
			<path id="path222" inkscape:connector-curvature="0" fill="none" stroke="#000000" stroke-width="19.8761" stroke-linejoin="round" stroke-miterlimit="10" d="
			M1297.5,189.8c5.7-14.1,22.3-94,34.9-94c27.2,0,76.4,74.1,89.6,93.3c24.2-15.8,10.8-49.1,55.6-49.1c20.3,0,30.5,43.7,51.7,44.5
			c0.7-17.7,1.9-33.7-7.8-54.1c-14.9-31.5-52.5-74.2-89.4-74.2c-26.5,0-63.4,31.9-70.6,31.9c-7.9,0-22.3-3.7-26.9-13.4
			c-19.3-40.8,32.2-177,83.8-177c27.6,0,60.5,20.2,89.3,32.7c-7.5-49.1-8.6-90.4,1.4-132.7c-26.3-16.7-57.1-23.7-81.8-23.7
			c-126.8,0-56.9,295-173.8,357.8L1297.5,189.8z"/>
		<path id="path224" inkscape:connector-curvature="0" fill-rule="evenodd" clip-rule="evenodd" d="M1785,213.4
			c95.9,0,133.7-172.4,90.7-263.6c-33.4-70.7-92.5-121.9-168.3-121.9c-133.8,0-117.1,182.5-64.9,293.1
			c14.4,30.5,63.6,96.9,102.1,96.9C1758.7,217.9,1770.4,213.4,1785,213.4z M1782,197.3c-15.1,0-28.4-7.5-35.4-22.3
			c-14.7-31.1,58.6-62.6,48.1-84.9c-6.6-14-31.8-27.1-44.5-27.1c-63.5,0-63,82.6-25.1,136.5c-23.5-15-39-37.9-49-59.2
			c-37.2-78.8-7.7-187.3,77.3-187.3c46.9,0,101,42.2,122,86.7C1901.2,94.5,1835.1,197.3,1782,197.3"/>
		
			<path id="path226" inkscape:connector-curvature="0" fill="none" stroke="#000000" stroke-width="19.8761" stroke-linejoin="round" stroke-miterlimit="10" d="
			M1785,213.4c95.9,0,133.7-172.4,90.7-263.6c-33.4-70.7-92.5-121.9-168.3-121.9c-133.8,0-117.1,182.5-64.9,293.1
			c14.4,30.5,63.6,96.9,102.1,96.9C1758.7,217.9,1770.4,213.4,1785,213.4z"/>
		
			<path id="path228" inkscape:connector-curvature="0" fill="none" stroke="#000000" stroke-width="19.8761" stroke-linejoin="round" stroke-miterlimit="10" d="
			M1782,197.3c-15.1,0-28.4-7.5-35.4-22.3c-14.7-31.1,58.6-62.6,48.1-84.9c-6.6-14-31.8-27.1-44.5-27.1c-63.5,0-63,82.6-25.1,136.5
			c-23.5-15-39-37.9-49-59.2c-37.2-78.8-7.7-187.3,77.3-187.3c46.9,0,101,42.2,122,86.7C1901.2,94.5,1835.1,197.3,1782,197.3
			L1782,197.3z"/>
		<path id="path230" inkscape:connector-curvature="0" fill-rule="evenodd" clip-rule="evenodd" d="M2220.7-70.5
			c-25.1-53.1-71.7-82.2-124.3-82.2c-166.8,0-199.9,152.1-127.6,305.2c17.1,36.1,45.1,76.1,87.9,76.1
			C2190.6,228.7,2284,63.7,2220.7-70.5L2220.7-70.5z M2087.6,209.5c-12.3,0-23.1-4.4-29-17c-13-27.5,57.6-52,57.7-80.4
			c-7.4-8.7-28-18.5-37-18.5c-50.8,0-89.2,68.9-45.8,120.1c-17.6-11.2-28.1-27.9-35.5-43.7c-44-93.2,18.7-187.5,110.1-187.5
			c38,0,87.1,21.2,106.8,63C2242.9,104.9,2143.3,209.5,2087.6,209.5"/>
		
			<path id="path232" inkscape:connector-curvature="0" fill="none" stroke="#000000" stroke-width="19.8761" stroke-linejoin="round" stroke-miterlimit="10" d="
			M2220.7-70.5c-25.1-53.1-71.7-82.2-124.3-82.2c-166.8,0-199.9,152.1-127.6,305.2c17.1,36.1,45.1,76.1,87.9,76.1
			C2190.6,228.7,2284,63.7,2220.7-70.5L2220.7-70.5z"/>
		
			<path id="path234" inkscape:connector-curvature="0" fill="none" stroke="#000000" stroke-width="19.8761" stroke-linejoin="round" stroke-miterlimit="10" d="
			M2087.6,209.5c-12.3,0-23.1-4.4-29-17c-13-27.5,57.6-52,57.7-80.4c-7.4-8.7-28-18.5-37-18.5c-50.8,0-89.2,68.9-45.8,120.1
			c-17.6-11.2-28.1-27.9-35.5-43.7c-44-93.2,18.7-187.5,110.1-187.5c38,0,87.1,21.2,106.8,63
			C2242.9,104.9,2143.3,209.5,2087.6,209.5z"/>
		<path id="path236" inkscape:connector-curvature="0" d="M2393.2,210.4c143.7,0,216.8-263.8,152.5-399.8c-12.3-26-35.2-52-65.3-52
			c-164.2,0-122.3,326.4-214.8,419.2c8.5,9,16.5,18.4,24,27.8c62.5-73.3,31.4-266.3,164.9-266.3c30.7,0,54,26.9,66.4,53.2
			c33.1,70.2-28.2,192.1-95.3,192.1c-0.7,0-10.3-0.4-10.1-4.3c2.5-44.8,37.7-16.9,2.2-93.1c-36.3,7.2-74.7,65.4-54.8,107.4
			C2368.7,207,2383.3,210.4,2393.2,210.4"/>
		
			<path id="path238" inkscape:connector-curvature="0" fill="none" stroke="#000000" stroke-width="19.8761" stroke-linejoin="round" stroke-miterlimit="10" d="
			M2393.2,210.4c143.7,0,216.8-263.8,152.5-399.8c-12.3-26-35.2-52-65.3-52c-164.2,0-122.3,326.4-214.8,419.2
			c8.5,9,16.5,18.4,24,27.8c62.5-73.3,31.4-266.3,164.9-266.3c30.7,0,54,26.9,66.4,53.2c33.1,70.2-28.2,192.1-95.3,192.1
			c-0.7,0-10.3-0.4-10.1-4.3c2.5-44.8,37.7-16.9,2.2-93.1c-36.3,7.2-74.7,65.4-54.8,107.4C2368.7,207,2383.3,210.4,2393.2,210.4
			L2393.2,210.4z"/>
		<path id="path240" inkscape:connector-curvature="0" fill-rule="evenodd" clip-rule="evenodd" d="M2750.6,213.3
			c13.5-1.3,33.9-0.1,45.5-3.6c2.2-0.7,0.5-3.4,0.9-5.5c3.5-19.9,9.1-38.8,13.9-58.1c18.7-75,30-152.1,51.5-226.5
			c23.4-81,47.8-172.3,19.4-273.9c-2.8-9.9-6.5-20-11.3-30.2c-32.1-68-308.5-146.4-380.6-146.4c-8.8,0-18.2,2.5-22.4,8.2
			c30.4,19.4,49.5,39.2,63.1,68c16.3,34.5,16.1,66.9,13.9,96.7c5.8-3.4,218.1,1.9,225.8,1.9c31.2,0,58,30.2,70.5,56.7
			c23,48.7,19.1,98.5,15.1,139.9c-2,20.8-4.8,41.3-8.7,61.2l-5.9,28.8l-0.7,3.2L2840-63c3.5,0,0.4-6.1,0.5-9.2
			c2.1-50.2,1.2-120.4-25.7-177.5c-12.5-26.6-33.1-54-64.6-54c-138,0-68.6,391.4-179.2,484.5c6.1,10.1,11.6,20.5,16.2,30.7
			c65.5-79,68.9-297,165.2-297c23.4,0,47.5,21.9,57.5,43C2852.7,48.2,2781.6,153.8,2750.6,213.3"/>
		
			<path id="path242" inkscape:connector-curvature="0" fill="none" stroke="#000000" stroke-width="19.8761" stroke-linejoin="round" stroke-miterlimit="10" d="
			M2750.6,213.3c13.5-1.3,33.9-0.1,45.5-3.6c2.2-0.7,0.5-3.4,0.9-5.5c3.5-19.9,9.1-38.8,13.9-58.1c18.7-75,30-152.1,51.5-226.5
			c23.4-81,47.8-172.3,19.4-273.9c-2.8-9.9-6.5-20-11.3-30.2c-32.1-68-308.5-146.4-380.6-146.4c-8.8,0-18.2,2.5-22.4,8.2
			c30.4,19.4,49.5,39.2,63.1,68c16.3,34.5,16.1,66.9,13.9,96.7c5.8-3.4,218.1,1.9,225.8,1.9c31.2,0,58,30.2,70.5,56.7
			c23,48.7,19.1,98.5,15.1,139.9c-2,20.8-4.8,41.3-8.7,61.2l-5.9,28.8l-0.7,3.2L2840-63c3.5,0,0.4-6.1,0.5-9.2
			c2.1-50.2,1.2-120.4-25.7-177.5c-12.5-26.6-33.1-54-64.6-54c-138,0-68.6,391.4-179.2,484.5c6.1,10.1,11.6,20.5,16.2,30.7
			c65.5-79,68.9-297,165.2-297c23.4,0,47.5,21.9,57.5,43C2852.7,48.2,2781.6,153.8,2750.6,213.3L2750.6,213.3z"/>
		<path id="path244" inkscape:connector-curvature="0" d="M1050.6,533.1c94.9,0,39.6-237.2,5.8-308.7
			c-28.9-61.2-94-149.6-171.1-149.6c-92.5,0-89.8,103.6-53,181.7c19.9,42.2,50.6,89.6,92.8,124.4c-10.8-36.3,25.7-61.2,11-92.5
			c-10.1-21.4-31-44.7-41.8-67.7c-17.6-37.2-10.8-103.2,31.6-103.2c38,0,71.7,47,85.5,76.3c28.3,60,99.2,316.1,20,316.1
			c-91.2,0-248.3-222.2-281.3-291.9C691.4,93.6,734-59.7,867.8-59.7c90.4,0,164.8,86.9,200.7,163.1c21.4,45.3,33.1,90.4,37.6,133
			l17.6,3.2c3.9-117.1,127.7-310.9,75-422.6c-67.5-143-269.3-141.7-384.5-192.4c-24.2,56.6-57,109.3-103.2,149.5
			c102.8,34.6,355.3,92.6,410.2,208.9c23.1,48.9,7.4,129.9-19.3,157.4c-4.5-17.3-10.8-34.9-19.1-52.5C1035.9-11.8,935.2-89,831.4-89
			C686.9-89,625.7,14.8,693.7,158.9C734.5,245.3,942.9,533.1,1050.6,533.1"/>
		
			<path id="path246" inkscape:connector-curvature="0" fill="none" stroke="#000000" stroke-width="1.6564" stroke-miterlimit="10" d="
			M1050.6,533.1c94.9,0,39.6-237.2,5.8-308.7c-28.9-61.2-94-149.6-171.1-149.6c-92.5,0-89.8,103.6-53,181.7
			c19.9,42.2,50.6,89.6,92.8,124.4c-10.8-36.3,25.7-61.2,11-92.5c-10.1-21.4-31-44.7-41.8-67.7c-17.6-37.2-10.8-103.2,31.6-103.2
			c38,0,71.7,47,85.5,76.3c28.3,60,99.2,316.1,20,316.1c-91.2,0-248.3-222.2-281.3-291.9C691.4,93.6,734-59.7,867.8-59.7
			c90.4,0,164.8,86.9,200.7,163.1c21.4,45.3,33.1,90.4,37.6,133l17.6,3.2c3.9-117.1,127.7-310.9,75-422.6
			c-67.5-143-269.3-141.7-384.5-192.4c-24.2,56.6-57,109.3-103.2,149.5c102.8,34.6,355.3,92.6,410.2,208.9
			c23.1,48.9,7.4,129.9-19.3,157.4c-4.5-17.3-10.8-34.9-19.1-52.5C1035.9-11.8,935.2-89,831.4-89C686.9-89,625.7,14.8,693.7,158.9
			C734.5,245.3,942.9,533.1,1050.6,533.1L1050.6,533.1z"/>
		<path id="path248" inkscape:connector-curvature="0" d="M1297.5,189.8c5.7-14.1,22.3-94,34.9-94c27.2,0,76.4,74.1,89.6,93.3
			c24.2-15.8,10.8-49.1,55.6-49.1c20.3,0,30.5,43.7,51.7,44.5c0.7-17.7,1.9-33.7-7.8-54.1c-14.9-31.5-52.5-74.2-89.4-74.2
			c-26.5,0-63.4,31.9-70.6,31.9c-7.9,0-22.3-3.7-26.9-13.4c-19.3-40.8,32.2-177,83.8-177c27.6,0,60.5,20.2,89.3,32.7
			c-7.5-49.1-8.6-90.4,1.4-132.7c-26.3-16.7-57.1-23.7-81.8-23.7c-126.8,0-56.9,295-173.8,357.8L1297.5,189.8"/>
		
			<path id="path250" inkscape:connector-curvature="0" fill="none" stroke="#000000" stroke-width="1.6564" stroke-miterlimit="10" d="
			M1297.5,189.8c5.7-14.1,22.3-94,34.9-94c27.2,0,76.4,74.1,89.6,93.3c24.2-15.8,10.8-49.1,55.6-49.1c20.3,0,30.5,43.7,51.7,44.5
			c0.7-17.7,1.9-33.7-7.8-54.1c-14.9-31.5-52.5-74.2-89.4-74.2c-26.5,0-63.4,31.9-70.6,31.9c-7.9,0-22.3-3.7-26.9-13.4
			c-19.3-40.8,32.2-177,83.8-177c27.6,0,60.5,20.2,89.3,32.7c-7.5-49.1-8.6-90.4,1.4-132.7c-26.3-16.7-57.1-23.7-81.8-23.7
			c-126.8,0-56.9,295-173.8,357.8L1297.5,189.8z"/>
		<path id="path252" inkscape:connector-curvature="0" fill-rule="evenodd" clip-rule="evenodd" d="M1785,213.4
			c95.9,0,133.7-172.4,90.7-263.6c-33.4-70.7-92.5-121.9-168.3-121.9c-133.8,0-117.1,182.5-64.9,293.1
			c14.4,30.5,63.6,96.9,102.1,96.9C1758.7,217.9,1770.4,213.4,1785,213.4z M1782,197.3c-15.1,0-28.4-7.5-35.4-22.3
			c-14.7-31.1,58.6-62.6,48.1-84.9c-6.6-14-31.8-27.1-44.5-27.1c-63.5,0-63,82.6-25.1,136.5c-23.5-15-39-37.9-49-59.2
			c-37.2-78.8-7.7-187.3,77.3-187.3c46.9,0,101,42.2,122,86.7C1901.2,94.5,1835.1,197.3,1782,197.3"/>
		
			<path id="path254" inkscape:connector-curvature="0" fill="none" stroke="#000000" stroke-width="1.6564" stroke-miterlimit="10" d="
			M1785,213.4c95.9,0,133.7-172.4,90.7-263.6c-33.4-70.7-92.5-121.9-168.3-121.9c-133.8,0-117.1,182.5-64.9,293.1
			c14.4,30.5,63.6,96.9,102.1,96.9C1758.7,217.9,1770.4,213.4,1785,213.4z"/>
		
			<path id="path256" inkscape:connector-curvature="0" fill="none" stroke="#000000" stroke-width="1.6564" stroke-miterlimit="10" d="
			M1782,197.3c-15.1,0-28.4-7.5-35.4-22.3c-14.7-31.1,58.6-62.6,48.1-84.9c-6.6-14-31.8-27.1-44.5-27.1c-63.5,0-63,82.6-25.1,136.5
			c-23.5-15-39-37.9-49-59.2c-37.2-78.8-7.7-187.3,77.3-187.3c46.9,0,101,42.2,122,86.7C1901.2,94.5,1835.1,197.3,1782,197.3
			L1782,197.3z"/>
		<path id="path258" inkscape:connector-curvature="0" fill-rule="evenodd" clip-rule="evenodd" d="M2220.7-70.5
			c-25.1-53.1-71.7-82.2-124.3-82.2c-166.8,0-199.9,152.1-127.6,305.2c17.1,36.1,45.1,76.1,87.9,76.1
			C2190.6,228.7,2284,63.7,2220.7-70.5L2220.7-70.5z M2087.6,209.5c-12.3,0-23.1-4.4-29-17c-13-27.5,57.6-52,57.7-80.4
			c-7.4-8.7-28-18.5-37-18.5c-50.8,0-89.2,68.9-45.8,120.1c-17.6-11.2-28.1-27.9-35.5-43.7c-44-93.2,18.7-187.5,110.1-187.5
			c38,0,87.1,21.2,106.8,63C2242.9,104.9,2143.3,209.5,2087.6,209.5"/>
		
			<path id="path260" inkscape:connector-curvature="0" fill="none" stroke="#000000" stroke-width="1.6564" stroke-miterlimit="10" d="
			M2220.7-70.5c-25.1-53.1-71.7-82.2-124.3-82.2c-166.8,0-199.9,152.1-127.6,305.2c17.1,36.1,45.1,76.1,87.9,76.1
			C2190.6,228.7,2284,63.7,2220.7-70.5L2220.7-70.5z"/>
		
			<path id="path262" inkscape:connector-curvature="0" fill="none" stroke="#000000" stroke-width="1.6564" stroke-miterlimit="10" d="
			M2087.6,209.5c-12.3,0-23.1-4.4-29-17c-13-27.5,57.6-52,57.7-80.4c-7.4-8.7-28-18.5-37-18.5c-50.8,0-89.2,68.9-45.8,120.1
			c-17.6-11.2-28.1-27.9-35.5-43.7c-44-93.2,18.7-187.5,110.1-187.5c38,0,87.1,21.2,106.8,63
			C2242.9,104.9,2143.3,209.5,2087.6,209.5z"/>
		<path id="path264" inkscape:connector-curvature="0" d="M2393.2,210.4c143.7,0,216.8-263.8,152.5-399.8c-12.3-26-35.2-52-65.3-52
			c-164.2,0-122.3,326.4-214.8,419.2c8.5,9,16.5,18.4,24,27.8c62.5-73.3,31.4-266.3,164.9-266.3c30.7,0,54,26.9,66.4,53.2
			c33.1,70.2-28.2,192.1-95.3,192.1c-0.7,0-10.3-0.4-10.1-4.3c2.5-44.8,37.7-16.9,2.2-93.1c-36.3,7.2-74.7,65.4-54.8,107.4
			C2368.7,207,2383.3,210.4,2393.2,210.4"/>
		
			<path id="path266" inkscape:connector-curvature="0" fill="none" stroke="#000000" stroke-width="1.6564" stroke-miterlimit="10" d="
			M2393.2,210.4c143.7,0,216.8-263.8,152.5-399.8c-12.3-26-35.2-52-65.3-52c-164.2,0-122.3,326.4-214.8,419.2
			c8.5,9,16.5,18.4,24,27.8c62.5-73.3,31.4-266.3,164.9-266.3c30.7,0,54,26.9,66.4,53.2c33.1,70.2-28.2,192.1-95.3,192.1
			c-0.7,0-10.3-0.4-10.1-4.3c2.5-44.8,37.7-16.9,2.2-93.1c-36.3,7.2-74.7,65.4-54.8,107.4C2368.7,207,2383.3,210.4,2393.2,210.4
			L2393.2,210.4z"/>
		<path id="path268" inkscape:connector-curvature="0" fill-rule="evenodd" clip-rule="evenodd" d="M2750.6,213.3
			c13.5-1.3,33.9-0.1,45.5-3.6c2.2-0.7,0.5-3.4,0.9-5.5c3.5-19.9,9.1-38.8,13.9-58.1c18.7-75,30-152.1,51.5-226.5
			c23.4-81,47.8-172.3,19.4-273.9c-2.8-9.9-6.5-20-11.3-30.2c-32.1-68-114.6-132.7-186.8-132.7c-8.8,0-18.2,2.5-22.4,8.2
			c30.5,19.4,49.5,39.2,63.1,68c16.3,34.6,16.1,66.9,13.9,96.7c5.8-3.4,24.2-11.7,31.9-11.7c31.2,0,58,30.2,70.5,56.7
			c23,48.7,19.1,98.5,15.1,139.9c-2,20.8-4.8,41.3-8.7,61.2l-5.9,28.8l-0.7,3.2L2840-63c3.5,0,0.4-6.1,0.5-9.2
			c2.1-50.2,1.2-120.4-25.7-177.5c-12.5-26.6-33.1-54-64.6-54c-138,0-68.6,391.4-179.2,484.5c6.1,10.1,11.6,20.5,16.2,30.7
			c65.5-79,68.9-297,165.2-297c23.4,0,47.5,21.9,57.5,43C2852.7,48.2,2781.6,153.8,2750.6,213.3"/>
		
			<path id="path270" inkscape:connector-curvature="0" fill="none" stroke="#000000" stroke-width="1.6564" stroke-miterlimit="10" d="
			M2750.6,213.3c13.5-1.3,33.9-0.1,45.5-3.6c2.2-0.7,0.5-3.4,0.9-5.5c3.5-19.9,9.1-38.8,13.9-58.1c18.7-75,30-152.1,51.5-226.5
			c23.4-81,47.8-172.3,19.4-273.9c-2.8-9.9-6.5-20-11.3-30.2c-32.1-68-114.6-132.7-186.8-132.7c-8.8,0-18.2,2.5-22.4,8.2
			c30.5,19.4,49.5,39.2,63.1,68c16.3,34.6,16.1,66.9,13.9,96.7c5.8-3.4,24.2-11.7,31.9-11.7c31.2,0,58,30.2,70.5,56.7
			c23,48.7,19.1,98.5,15.1,139.9c-2,20.8-4.8,41.3-8.7,61.2l-5.9,28.8l-0.7,3.2L2840-63c3.5,0,0.4-6.1,0.5-9.2
			c2.1-50.2,1.2-120.4-25.7-177.5c-12.5-26.6-33.1-54-64.6-54c-138,0-68.6,391.4-179.2,484.5c6.1,10.1,11.6,20.5,16.2,30.7
			c65.5-79,68.9-297,165.2-297c23.4,0,47.5,21.9,57.5,43C2852.7,48.2,2781.6,153.8,2750.6,213.3L2750.6,213.3z"/>
		<path id="path272" inkscape:connector-curvature="0" d="M1050.6,533.1c94.9,0,39.6-237.2,5.8-308.7
			c-28.9-61.2-94-149.6-171.1-149.6c-92.5,0-89.8,103.6-53,181.7c19.9,42.2,50.6,89.6,92.8,124.4c-10.8-36.3,25.7-61.2,11-92.5
			c-10.1-21.4-31-44.7-41.8-67.7c-17.6-37.2-10.8-103.2,31.6-103.2c38,0,71.7,47,85.5,76.3c28.3,60,99.2,316.1,20,316.1
			c-91.2,0-248.3-222.2-281.3-291.9C691.4,93.6,734-59.7,867.8-59.7c90.4,0,164.8,86.9,200.7,163.1c21.4,45.3,33.1,90.4,37.6,133
			l17.6,3.2c3.9-117.1,127.7-310.9,75-422.6c-67.5-143-269.3-141.7-384.5-192.4c-24.2,56.6-57,109.3-103.2,149.5
			c102.8,34.6,355.3,92.6,410.2,208.9c23.1,48.9,7.4,129.9-19.3,157.4c-4.5-17.3-10.8-34.9-19.1-52.5C1035.9-11.8,935.2-89,831.4-89
			C686.9-89,625.7,14.8,693.7,158.9C734.5,245.3,942.9,533.1,1050.6,533.1"/>
		
			<path id="path274" inkscape:connector-curvature="0" fill="none" stroke="#000000" stroke-width="19.8761" stroke-linejoin="round" stroke-miterlimit="10" d="
			M1050.6,533.1c94.9,0,39.6-237.2,5.8-308.7c-28.9-61.2-94-149.6-171.1-149.6c-92.5,0-89.8,103.6-53,181.7
			c19.9,42.2,50.6,89.6,92.8,124.4c-10.8-36.3,25.7-61.2,11-92.5c-10.1-21.4-31-44.7-41.8-67.7c-17.6-37.2-10.8-103.2,31.6-103.2
			c38,0,71.7,47,85.5,76.3c28.3,60,99.2,316.1,20,316.1c-91.2,0-248.3-222.2-281.3-291.9C691.4,93.6,734-59.7,867.8-59.7
			c90.4,0,164.8,86.9,200.7,163.1c21.4,45.3,33.1,90.4,37.6,133l17.6,3.2c3.9-117.1,127.7-310.9,75-422.6
			c-67.5-143-269.3-141.7-384.5-192.4c-24.2,56.6-57,109.3-103.2,149.5c102.8,34.6,355.3,92.6,410.2,208.9
			c23.1,48.9,7.4,129.9-19.3,157.4c-4.5-17.3-10.8-34.9-19.1-52.5C1035.9-11.8,935.2-89,831.4-89C686.9-89,625.7,14.8,693.7,158.9
			C734.5,245.3,942.9,533.1,1050.6,533.1L1050.6,533.1z"/>
		<path id="path276" inkscape:connector-curvature="0" d="M1297.5,189.8c5.7-14.1,22.3-94,34.9-94c27.2,0,76.4,74.1,89.6,93.3
			c24.2-15.8,10.8-49.1,55.6-49.1c20.3,0,30.5,43.7,51.7,44.5c0.7-17.7,1.9-33.7-7.8-54.1c-14.9-31.5-52.5-74.2-89.4-74.2
			c-26.5,0-63.4,31.9-70.6,31.9c-7.9,0-22.3-3.7-26.9-13.4c-19.3-40.8,32.2-177,83.8-177c27.6,0,60.5,20.2,89.3,32.7
			c-7.5-49.1-8.6-90.4,1.4-132.7c-26.3-16.7-57.1-23.7-81.8-23.7c-126.8,0-56.9,295-173.8,357.8L1297.5,189.8"/>
		
			<path id="path278" inkscape:connector-curvature="0" fill="none" stroke="#000000" stroke-width="19.8761" stroke-linejoin="round" stroke-miterlimit="10" d="
			M1297.5,189.8c5.7-14.1,22.3-94,34.9-94c27.2,0,76.4,74.1,89.6,93.3c24.2-15.8,10.8-49.1,55.6-49.1c20.3,0,30.5,43.7,51.7,44.5
			c0.7-17.7,1.9-33.7-7.8-54.1c-14.9-31.5-52.5-74.2-89.4-74.2c-26.5,0-63.4,31.9-70.6,31.9c-7.9,0-22.3-3.7-26.9-13.4
			c-19.3-40.8,32.2-177,83.8-177c27.6,0,60.5,20.2,89.3,32.7c-7.5-49.1-8.6-90.4,1.4-132.7c-26.3-16.7-57.1-23.7-81.8-23.7
			c-126.8,0-56.9,295-173.8,357.8L1297.5,189.8z"/>
		<path id="path280" inkscape:connector-curvature="0" fill-rule="evenodd" clip-rule="evenodd" d="M1785,213.4
			c95.9,0,133.7-172.4,90.7-263.6c-33.4-70.7-92.5-121.9-168.3-121.9c-133.8,0-117.1,182.5-64.9,293.1
			c14.4,30.5,63.6,96.9,102.1,96.9C1758.7,217.9,1770.4,213.4,1785,213.4z M1782,197.3c-15.1,0-28.4-7.5-35.4-22.3
			c-14.7-31.1,58.6-62.6,48.1-84.9c-6.6-14-31.8-27.1-44.5-27.1c-63.5,0-63,82.6-25.1,136.5c-23.5-15-39-37.9-49-59.2
			c-37.2-78.8-7.7-187.3,77.3-187.3c46.9,0,101,42.2,122,86.7C1901.2,94.5,1835.1,197.3,1782,197.3"/>
		
			<path id="path282" inkscape:connector-curvature="0" fill="none" stroke="#000000" stroke-width="19.8761" stroke-linejoin="round" stroke-miterlimit="10" d="
			M1785,213.4c95.9,0,133.7-172.4,90.7-263.6c-33.4-70.7-92.5-121.9-168.3-121.9c-133.8,0-117.1,182.5-64.9,293.1
			c14.4,30.5,63.6,96.9,102.1,96.9C1758.7,217.9,1770.4,213.4,1785,213.4z"/>
		
			<path id="path284" inkscape:connector-curvature="0" fill="none" stroke="#000000" stroke-width="19.8761" stroke-linejoin="round" stroke-miterlimit="10" d="
			M1782,197.3c-15.1,0-28.4-7.5-35.4-22.3c-14.7-31.1,58.6-62.6,48.1-84.9c-6.6-14-31.8-27.1-44.5-27.1c-63.5,0-63,82.6-25.1,136.5
			c-23.5-15-39-37.9-49-59.2c-37.2-78.8-7.7-187.3,77.3-187.3c46.9,0,101,42.2,122,86.7C1901.2,94.5,1835.1,197.3,1782,197.3
			L1782,197.3z"/>
		<path id="path286" inkscape:connector-curvature="0" fill-rule="evenodd" clip-rule="evenodd" d="M2220.7-70.5
			c-25.1-53.1-71.7-82.2-124.3-82.2c-166.8,0-199.9,152.1-127.6,305.2c17.1,36.1,45.1,76.1,87.9,76.1
			C2190.6,228.7,2284,63.7,2220.7-70.5L2220.7-70.5z M2087.6,209.5c-12.3,0-23.1-4.4-29-17c-13-27.5,57.6-52,57.7-80.4
			c-7.4-8.7-28-18.5-37-18.5c-50.8,0-89.2,68.9-45.8,120.1c-17.6-11.2-28.1-27.9-35.5-43.7c-44-93.2,18.7-187.5,110.1-187.5
			c38,0,87.1,21.2,106.8,63C2242.9,104.9,2143.3,209.5,2087.6,209.5"/>
		
			<path id="path288" inkscape:connector-curvature="0" fill="none" stroke="#000000" stroke-width="19.8761" stroke-linejoin="round" stroke-miterlimit="10" d="
			M2220.7-70.5c-25.1-53.1-71.7-82.2-124.3-82.2c-166.8,0-199.9,152.1-127.6,305.2c17.1,36.1,45.1,76.1,87.9,76.1
			C2190.6,228.7,2284,63.7,2220.7-70.5L2220.7-70.5z"/>
		
			<path id="path290" inkscape:connector-curvature="0" fill="none" stroke="#000000" stroke-width="19.8761" stroke-linejoin="round" stroke-miterlimit="10" d="
			M2087.6,209.5c-12.3,0-23.1-4.4-29-17c-13-27.5,57.6-52,57.7-80.4c-7.4-8.7-28-18.5-37-18.5c-50.8,0-89.2,68.9-45.8,120.1
			c-17.6-11.2-28.1-27.9-35.5-43.7c-44-93.2,18.7-187.5,110.1-187.5c38,0,87.1,21.2,106.8,63
			C2242.9,104.9,2143.3,209.5,2087.6,209.5z"/>
		<path id="path292" inkscape:connector-curvature="0" d="M2393.2,210.4c143.7,0,216.8-263.8,152.5-399.8c-12.3-26-35.2-52-65.3-52
			c-164.2,0-122.3,326.4-214.8,419.2c8.5,9,16.5,18.4,24,27.8c62.5-73.3,31.4-266.3,164.9-266.3c30.7,0,54,26.9,66.4,53.2
			c33.1,70.2-28.2,192.1-95.3,192.1c-0.7,0-10.3-0.4-10.1-4.3c2.5-44.8,37.7-16.9,2.2-93.1c-36.3,7.2-74.7,65.4-54.8,107.4
			C2368.7,207,2383.3,210.4,2393.2,210.4"/>
		
			<path id="path294" inkscape:connector-curvature="0" fill="none" stroke="#000000" stroke-width="19.8761" stroke-linejoin="round" stroke-miterlimit="10" d="
			M2393.2,210.4c143.7,0,216.8-263.8,152.5-399.8c-12.3-26-35.2-52-65.3-52c-164.2,0-122.3,326.4-214.8,419.2
			c8.5,9,16.5,18.4,24,27.8c62.5-73.3,31.4-266.3,164.9-266.3c30.7,0,54,26.9,66.4,53.2c33.1,70.2-28.2,192.1-95.3,192.1
			c-0.7,0-10.3-0.4-10.1-4.3c2.5-44.8,37.7-16.9,2.2-93.1c-36.3,7.2-74.7,65.4-54.8,107.4C2368.7,207,2383.3,210.4,2393.2,210.4
			L2393.2,210.4z"/>
		<path id="path296" inkscape:connector-curvature="0" fill-rule="evenodd" clip-rule="evenodd" d="M2750.6,213.3
			c13.5-1.3,33.9-0.1,45.5-3.6c2.2-0.7,0.5-3.4,0.9-5.5c3.5-19.9,9.1-38.8,13.9-58.1c18.7-75,30-152.1,51.5-226.5
			c23.4-81,47.8-172.3,19.4-273.9c-2.8-9.9-6.5-20-11.3-30.2c-32.1-68-114.6-132.7-186.8-132.7c-8.8,0-18.2,2.5-22.4,8.2
			c30.5,19.4,49.5,39.2,63.1,68c16.3,34.6,16.1,66.9,13.9,96.7c5.8-3.4,24.2-11.7,31.9-11.7c31.2,0,58,30.2,70.5,56.7
			c23,48.7,19.1,98.5,15.1,139.9c-2,20.8-4.8,41.3-8.7,61.2l-5.9,28.8l-0.7,3.2L2840-63c3.5,0,0.4-6.1,0.5-9.2
			c2.1-50.2,1.2-120.4-25.7-177.5c-12.5-26.6-33.1-54-64.6-54c-138,0-68.6,391.4-179.2,484.5c6.1,10.1,11.6,20.5,16.2,30.7
			c65.5-79,68.9-297,165.2-297c23.4,0,47.5,21.9,57.5,43C2852.7,48.2,2781.6,153.8,2750.6,213.3"/>
		
			<path id="path298" inkscape:connector-curvature="0" fill="none" stroke="#000000" stroke-width="19.8761" stroke-linejoin="round" stroke-miterlimit="10" d="
			M2750.6,213.3c13.5-1.3,33.9-0.1,45.5-3.6c2.2-0.7,0.5-3.4,0.9-5.5c3.5-19.9,9.1-38.8,13.9-58.1c18.7-75,30-152.1,51.5-226.5
			c23.4-81,47.8-172.3,19.4-273.9c-2.8-9.9-6.5-20-11.3-30.2c-32.1-68-114.6-132.7-186.8-132.7c-8.8,0-18.2,2.5-22.4,8.2
			c30.5,19.4,49.5,39.2,63.1,68c16.3,34.6,16.1,66.9,13.9,96.7c5.8-3.4,24.2-11.7,31.9-11.7c31.2,0,58,30.2,70.5,56.7
			c23,48.7,19.1,98.5,15.1,139.9c-2,20.8-4.8,41.3-8.7,61.2l-5.9,28.8l-0.7,3.2L2840-63c3.5,0,0.4-6.1,0.5-9.2
			c2.1-50.2,1.2-120.4-25.7-177.5c-12.5-26.6-33.1-54-64.6-54c-138,0-68.6,391.4-179.2,484.5c6.1,10.1,11.6,20.5,16.2,30.7
			c65.5-79,68.9-297,165.2-297c23.4,0,47.5,21.9,57.5,43C2852.7,48.2,2781.6,153.8,2750.6,213.3L2750.6,213.3z"/>
		<path id="path300" inkscape:connector-curvature="0" fill="#FFFFFF" d="M1050.6,533.1c94.9,0,39.6-237.2,5.8-308.7
			c-28.9-61.2-94-149.6-171.1-149.6c-92.5,0-89.8,103.6-53,181.7c19.9,42.2,50.6,89.6,92.8,124.4c-10.8-36.3,25.7-61.2,11-92.5
			c-10.1-21.4-31-44.7-41.8-67.7c-17.6-37.2-10.8-103.2,31.6-103.2c38,0,71.7,47,85.5,76.3c28.3,60,99.2,316.1,20,316.1
			c-91.2,0-248.3-222.2-281.3-291.9C691.4,93.6,734-59.7,867.8-59.7c90.4,0,164.8,86.9,200.7,163.1c21.4,45.3,33.1,90.4,37.6,133
			l17.6,3.2c3.9-117.1,127.7-310.9,75-422.6c-67.5-143-269.3-141.7-384.5-192.4c-24.2,56.6-57,109.3-103.2,149.5
			c102.8,34.6,355.3,92.6,410.2,208.9c23.1,48.9,7.4,129.9-19.3,157.4c-4.5-17.3-10.8-34.9-19.1-52.5C1035.9-11.8,935.2-89,831.4-89
			C686.9-89,625.7,14.8,693.7,158.9C734.5,245.3,942.9,533.1,1050.6,533.1"/>
		<path id="path302" inkscape:connector-curvature="0" fill="#FFFFFF" d="M1297.5,189.8c5.7-14.1,22.3-94,34.9-94
			c27.2,0,76.4,74.1,89.6,93.3c24.2-15.8,10.8-49.1,55.6-49.1c20.3,0,30.5,43.7,51.7,44.5c0.7-17.7,1.9-33.7-7.8-54.1
			c-14.9-31.5-52.5-74.2-89.4-74.2c-26.5,0-63.4,31.9-70.6,31.9c-7.9,0-22.3-3.7-26.9-13.4c-19.3-40.8,32.2-177,83.8-177
			c27.6,0,60.5,20.2,89.3,32.7c-7.5-49.1-8.6-90.4,1.4-132.7c-26.3-16.7-57.1-23.7-81.8-23.7c-126.8,0-56.9,295-173.8,357.8
			L1297.5,189.8"/>
		<path id="path304" inkscape:connector-curvature="0" fill-rule="evenodd" clip-rule="evenodd" fill="#FFFFFF" d="M1785,213.4
			c95.9,0,133.7-172.4,90.7-263.6c-33.4-70.7-92.5-121.9-168.3-121.9c-133.8,0-117.1,182.5-64.9,293.1
			c14.4,30.5,63.6,96.9,102.1,96.9C1758.7,217.9,1770.4,213.4,1785,213.4z M1782,197.3c-15.1,0-28.4-7.5-35.4-22.3
			c-14.7-31.1,58.6-62.6,48.1-84.9c-6.6-14-31.8-27.1-44.5-27.1c-63.5,0-63,82.6-25.1,136.5c-23.5-15-39-37.9-49-59.2
			c-37.2-78.8-7.7-187.3,77.3-187.3c46.9,0,101,42.2,122,86.7C1901.2,94.5,1835.1,197.3,1782,197.3"/>
		<path id="path306" inkscape:connector-curvature="0" fill-rule="evenodd" clip-rule="evenodd" fill="#FFFFFF" d="M2220.7-70.5
			c-25.1-53.1-71.7-82.2-124.3-82.2c-166.8,0-199.9,152.1-127.6,305.2c17.1,36.1,45.1,76.1,87.9,76.1
			C2190.6,228.7,2284,63.7,2220.7-70.5L2220.7-70.5z M2087.6,209.5c-12.3,0-23.1-4.4-29-17c-13-27.5,57.6-52,57.7-80.4
			c-7.4-8.7-28-18.5-37-18.5c-50.8,0-89.2,68.9-45.8,120.1c-17.6-11.2-28.1-27.9-35.5-43.7c-44-93.2,18.7-187.5,110.1-187.5
			c38,0,87.1,21.2,106.8,63C2242.9,104.9,2143.3,209.5,2087.6,209.5"/>
		<path id="path308" inkscape:connector-curvature="0" fill="#FFFFFF" d="M2393.2,210.4c143.7,0,216.8-263.8,152.5-399.8
			c-12.3-26-35.2-52-65.3-52c-164.2,0-122.3,326.4-214.8,419.2c8.5,9,16.5,18.4,24,27.8c62.5-73.3,31.4-266.3,164.9-266.3
			c30.7,0,54,26.9,66.4,53.2c33.1,70.2-28.2,192.1-95.3,192.1c-0.7,0-10.3-0.4-10.1-4.3c2.5-44.8,37.7-16.9,2.2-93.1
			c-36.3,7.2-74.7,65.4-54.8,107.4C2368.7,207,2383.3,210.4,2393.2,210.4"/>
		<path id="path310" inkscape:connector-curvature="0" fill-rule="evenodd" clip-rule="evenodd" fill="#FFFFFF" d="M2750.6,213.3
			c13.5-1.3,33.9-0.1,45.5-3.6c2.2-0.7,0.5-3.4,0.9-5.5c3.5-19.9,9.1-38.8,13.9-58.1c18.7-75,30-152.1,51.5-226.5
			c23.4-81,47.8-172.3,19.4-273.9c-2.8-9.9-6.5-20-11.3-30.2c-107.6-206.7-338-151-410.1-151c-8.8,0-18.2,2.5-22.4,8.2
			c30.4,19.4,49.5,39.2,63.1,68c16.3,34.6,16.1,66.9,13.9,96.7c5.8-3.4,24.3-11.7,31.9-11.7c31.2,0,205.2-89.4,293.9,75
			c23,48.7,19.1,98.5,15.1,139.9c-2,20.8-4.8,41.3-8.7,61.2l-5.9,28.8l-0.7,3.2L2840-63c3.5,0,0.4-6.1,0.5-9.2
			c2.1-50.2,1.2-120.4-25.7-177.5c-12.5-26.6-33.1-54-64.6-54c-138,0-68.6,391.4-179.2,484.5c6.1,10.1,11.6,20.5,16.2,30.7
			c65.5-79,68.9-297,165.2-297c23.4,0,47.5,21.9,57.5,43C2852.7,48.2,2781.6,153.8,2750.6,213.3"/>
	</g>
</g>
</svg>
